<mxfile host="app.diagrams.net" agent="Mozilla/5.0 (Macintosh; Intel Mac OS X 10_15_7) AppleWebKit/537.36 (KHTML, like Gecko) Chrome/130.0.0.0 Safari/537.36" version="24.9.0">
  <diagram name="Strona-1" id="YWpVvtRCijvC7lbnxfNg">
    <mxGraphModel dx="649" dy="590" grid="1" gridSize="10" guides="1" tooltips="1" connect="1" arrows="1" fold="1" page="1" pageScale="1" pageWidth="827" pageHeight="1169" math="0" shadow="0">
      <root>
        <mxCell id="0" />
        <mxCell id="1" parent="0" />
        <mxCell id="ikWOXeqjDEDerUi_TaFO-1" value="" style="shape=datastore;whiteSpace=wrap;html=1;" vertex="1" parent="1">
          <mxGeometry x="100" y="490" width="60" height="60" as="geometry" />
        </mxCell>
        <mxCell id="ikWOXeqjDEDerUi_TaFO-2" value="Zbiór pytań/zadań testowych" style="text;html=1;align=center;verticalAlign=middle;whiteSpace=wrap;rounded=0;" vertex="1" parent="1">
          <mxGeometry x="70" y="450" width="130" height="30" as="geometry" />
        </mxCell>
        <mxCell id="ikWOXeqjDEDerUi_TaFO-3" value="" style="endArrow=classic;html=1;rounded=0;exitX=1;exitY=0.5;exitDx=0;exitDy=0;entryX=0;entryY=0.5;entryDx=0;entryDy=0;" edge="1" parent="1" source="ikWOXeqjDEDerUi_TaFO-1" target="ikWOXeqjDEDerUi_TaFO-5">
          <mxGeometry width="50" height="50" relative="1" as="geometry">
            <mxPoint x="400" y="580" as="sourcePoint" />
            <mxPoint x="280" y="520" as="targetPoint" />
          </mxGeometry>
        </mxCell>
        <mxCell id="ikWOXeqjDEDerUi_TaFO-4" value="pytanie/zadanie" style="edgeLabel;html=1;align=center;verticalAlign=middle;resizable=0;points=[];" vertex="1" connectable="0" parent="ikWOXeqjDEDerUi_TaFO-3">
          <mxGeometry x="-0.1374" y="3" relative="1" as="geometry">
            <mxPoint x="2" y="2" as="offset" />
          </mxGeometry>
        </mxCell>
        <mxCell id="ikWOXeqjDEDerUi_TaFO-5" value="LLM" style="rounded=1;whiteSpace=wrap;html=1;fillColor=#dae8fc;strokeColor=#6c8ebf;" vertex="1" parent="1">
          <mxGeometry x="260" y="505" width="60" height="30" as="geometry" />
        </mxCell>
        <mxCell id="ikWOXeqjDEDerUi_TaFO-6" value="" style="endArrow=classic;html=1;rounded=0;exitX=1;exitY=0.5;exitDx=0;exitDy=0;entryX=0;entryY=0.5;entryDx=0;entryDy=0;" edge="1" parent="1" source="ikWOXeqjDEDerUi_TaFO-5" target="ikWOXeqjDEDerUi_TaFO-7">
          <mxGeometry width="50" height="50" relative="1" as="geometry">
            <mxPoint x="340" y="510" as="sourcePoint" />
            <mxPoint x="420" y="480" as="targetPoint" />
            <Array as="points">
              <mxPoint x="400" y="520" />
              <mxPoint x="400" y="485" />
            </Array>
          </mxGeometry>
        </mxCell>
        <mxCell id="ikWOXeqjDEDerUi_TaFO-9" value="odpowiedź" style="edgeLabel;html=1;align=center;verticalAlign=middle;resizable=0;points=[];" vertex="1" connectable="0" parent="ikWOXeqjDEDerUi_TaFO-6">
          <mxGeometry x="-0.1821" y="-1" relative="1" as="geometry">
            <mxPoint x="-17" y="-1" as="offset" />
          </mxGeometry>
        </mxCell>
        <mxCell id="ikWOXeqjDEDerUi_TaFO-7" value="Metryka 1" style="rounded=1;whiteSpace=wrap;html=1;fillColor=#ffe6cc;strokeColor=#d79b00;" vertex="1" parent="1">
          <mxGeometry x="414" y="470" width="60" height="30" as="geometry" />
        </mxCell>
        <mxCell id="ikWOXeqjDEDerUi_TaFO-8" value="Dataset" style="text;html=1;align=center;verticalAlign=middle;whiteSpace=wrap;rounded=0;fontSize=9;" vertex="1" parent="1">
          <mxGeometry x="65" y="550" width="130" height="30" as="geometry" />
        </mxCell>
        <mxCell id="ikWOXeqjDEDerUi_TaFO-10" value="..." style="text;html=1;align=center;verticalAlign=middle;whiteSpace=wrap;rounded=0;horizontal=0;" vertex="1" parent="1">
          <mxGeometry x="422" y="498" width="35" height="30" as="geometry" />
        </mxCell>
        <mxCell id="ikWOXeqjDEDerUi_TaFO-11" value="" style="endArrow=classic;html=1;rounded=0;entryX=0;entryY=0.5;entryDx=0;entryDy=0;" edge="1" parent="1" target="ikWOXeqjDEDerUi_TaFO-12">
          <mxGeometry width="50" height="50" relative="1" as="geometry">
            <mxPoint x="400" y="520" as="sourcePoint" />
            <mxPoint x="400" y="550" as="targetPoint" />
            <Array as="points">
              <mxPoint x="400" y="543" />
            </Array>
          </mxGeometry>
        </mxCell>
        <mxCell id="ikWOXeqjDEDerUi_TaFO-12" value="Metryka n" style="rounded=1;whiteSpace=wrap;html=1;fillColor=#ffe6cc;strokeColor=#d79b00;" vertex="1" parent="1">
          <mxGeometry x="414" y="528" width="60" height="30" as="geometry" />
        </mxCell>
        <mxCell id="ikWOXeqjDEDerUi_TaFO-13" value="" style="endArrow=classic;html=1;rounded=0;exitX=1;exitY=0.5;exitDx=0;exitDy=0;entryX=0;entryY=0.5;entryDx=0;entryDy=0;" edge="1" parent="1" source="ikWOXeqjDEDerUi_TaFO-7" target="ikWOXeqjDEDerUi_TaFO-15">
          <mxGeometry width="50" height="50" relative="1" as="geometry">
            <mxPoint x="490" y="500" as="sourcePoint" />
            <mxPoint x="530" y="520" as="targetPoint" />
            <Array as="points">
              <mxPoint x="480" y="485" />
              <mxPoint x="520" y="485" />
              <mxPoint x="520" y="520" />
            </Array>
          </mxGeometry>
        </mxCell>
        <mxCell id="ikWOXeqjDEDerUi_TaFO-18" value="punkty" style="edgeLabel;html=1;align=center;verticalAlign=middle;resizable=0;points=[];" vertex="1" connectable="0" parent="ikWOXeqjDEDerUi_TaFO-13">
          <mxGeometry x="-0.4624" y="-1" relative="1" as="geometry">
            <mxPoint x="-2" y="-2" as="offset" />
          </mxGeometry>
        </mxCell>
        <mxCell id="ikWOXeqjDEDerUi_TaFO-15" value="Wynik całkowity" style="rounded=1;whiteSpace=wrap;html=1;fillColor=#e1d5e7;strokeColor=#9673a6;" vertex="1" parent="1">
          <mxGeometry x="537" y="505" width="60" height="30" as="geometry" />
        </mxCell>
        <mxCell id="ikWOXeqjDEDerUi_TaFO-17" value="" style="endArrow=none;html=1;rounded=0;exitX=1;exitY=0.5;exitDx=0;exitDy=0;" edge="1" parent="1" source="ikWOXeqjDEDerUi_TaFO-12">
          <mxGeometry width="50" height="50" relative="1" as="geometry">
            <mxPoint x="390" y="520" as="sourcePoint" />
            <mxPoint x="520" y="520" as="targetPoint" />
            <Array as="points">
              <mxPoint x="520" y="543" />
            </Array>
          </mxGeometry>
        </mxCell>
        <mxCell id="ikWOXeqjDEDerUi_TaFO-19" value="punkty" style="edgeLabel;html=1;align=center;verticalAlign=middle;resizable=0;points=[];" vertex="1" connectable="0" parent="ikWOXeqjDEDerUi_TaFO-17">
          <mxGeometry x="-0.4106" relative="1" as="geometry">
            <mxPoint x="1" as="offset" />
          </mxGeometry>
        </mxCell>
        <mxCell id="ikWOXeqjDEDerUi_TaFO-20" value="..." style="text;html=1;align=center;verticalAlign=middle;whiteSpace=wrap;rounded=0;horizontal=0;" vertex="1" parent="1">
          <mxGeometry x="474" y="498" width="35" height="30" as="geometry" />
        </mxCell>
      </root>
    </mxGraphModel>
  </diagram>
</mxfile>
